<?xml version="1.0" encoding="UTF-8"?>
<svg xmlns="http://www.w3.org/2000/svg" xmlns:xlink="http://www.w3.org/1999/xlink" width="100px" height="62px"
  viewBox="0 0 99 62" version="1.1">
  <defs>
    <clipPath id="clip1">
      <path
        d="M 19.371094 32.109375 L 79.507812 32.109375 L 79.507812 48.175781 L 19.371094 48.175781 Z M 19.371094 32.109375 " />
    </clipPath>
    <clipPath id="clip2">
      <path d="M 21 9.144531 L 78 9.144531 L 78 62 L 21 62 Z M 21 9.144531 " />
    </clipPath>
    <clipPath id="clip3">
      <path d="M 20.261719 9.144531 L 78.738281 9.144531 L 78.738281 62 L 20.261719 62 Z M 20.261719 9.144531 " />
    </clipPath>
  </defs>
  <g id="surface1">
    <g clip-path="url(#clip1)" clip-rule="nonzero">
      <path style=" stroke:none;fill-rule:nonzero;fill:rgb(1.176471%,27.45098%,12.54902%);fill-opacity:1;"
        d="M 29.257812 34.058594 L 28.300781 35.058594 L 28.058594 35.039062 C 27.78125 34.257812 27.378906 33.695312 26.859375 33.339844 C 26.347656 32.996094 25.738281 32.816406 25.039062 32.816406 C 24.269531 32.816406 23.625 32.96875 23.089844 33.28125 C 22.566406 33.59375 22.132812 34.015625 21.808594 34.542969 C 21.484375 35.074219 21.246094 35.652344 21.097656 36.289062 C 20.953125 36.925781 20.882812 37.578125 20.882812 38.226562 C 20.882812 38.757812 20.960938 39.277344 21.113281 39.800781 C 21.265625 40.316406 21.441406 40.777344 21.65625 41.179688 C 21.871094 41.578125 22.070312 41.878906 22.246094 42.078125 C 22.710938 42.546875 23.160156 42.898438 23.59375 43.140625 C 24.023438 43.382812 24.589844 43.503906 25.273438 43.503906 C 25.84375 43.503906 26.398438 43.390625 26.929688 43.167969 C 27.457031 42.945312 27.957031 42.667969 28.433594 42.351562 L 28.71875 42.847656 C 28.109375 43.273438 27.46875 43.644531 26.796875 43.949219 C 26.117188 44.261719 25.414062 44.421875 24.683594 44.421875 C 24.015625 44.421875 23.359375 44.328125 22.703125 44.148438 C 22.050781 43.976562 21.484375 43.636719 20.996094 43.140625 C 20.414062 42.535156 19.996094 41.820312 19.746094 41.011719 C 19.5 40.203125 19.378906 39.382812 19.378906 38.539062 C 19.378906 37.710938 19.488281 36.894531 19.710938 36.09375 C 19.925781 35.289062 20.332031 34.589844 20.914062 33.988281 C 21.535156 33.359375 22.253906 32.886719 23.070312 32.574219 C 23.882812 32.269531 24.734375 32.109375 25.609375 32.109375 C 26.351562 32.109375 27.039062 32.25 27.667969 32.53125 C 28.289062 32.816406 28.820312 33.320312 29.257812 34.058594 Z M 34.296875 42.230469 L 34.480469 42.230469 L 34.664062 42.433594 C 34.472656 42.734375 34.253906 43.03125 33.992188 43.332031 C 33.730469 43.632812 33.445312 43.875 33.128906 44.066406 C 32.8125 44.257812 32.46875 44.351562 32.101562 44.351562 C 31.816406 44.351562 31.574219 44.28125 31.367188 44.148438 C 31.15625 44.019531 30.996094 43.777344 30.882812 43.429688 C 30.769531 43.078125 30.710938 42.574219 30.710938 41.917969 L 30.832031 35.402344 C 30.832031 35.117188 30.824219 34.804688 30.820312 34.480469 C 30.820312 34.15625 30.792969 33.886719 30.75 33.675781 C 30.710938 33.492188 30.609375 33.371094 30.445312 33.308594 C 30.273438 33.242188 30.082031 33.207031 29.867188 33.199219 C 29.652344 33.1875 29.457031 33.171875 29.277344 33.160156 L 29.277344 32.765625 L 29.378906 32.675781 L 32.164062 32.332031 L 32.265625 32.453125 C 32.234375 33.664062 32.183594 34.867188 32.121094 36.074219 C 32.0625 37.285156 32.03125 38.488281 32.03125 39.691406 C 32.03125 40.261719 32.03125 40.796875 32.019531 41.300781 C 32.019531 41.804688 32.070312 42.21875 32.171875 42.53125 C 32.277344 42.847656 32.507812 43.019531 32.84375 43.039062 C 33.121094 43.039062 33.382812 42.949219 33.617188 42.773438 C 33.859375 42.59375 34.082031 42.414062 34.296875 42.230469 Z M 38.585938 44.402344 C 37.8125 44.402344 37.191406 44.226562 36.71875 43.875 C 36.25 43.523438 35.914062 43.078125 35.699219 42.523438 C 35.484375 41.96875 35.355469 41.386719 35.3125 40.78125 C 35.3125 40.183594 35.363281 39.585938 35.46875 38.984375 C 35.578125 38.394531 35.832031 37.871094 36.238281 37.417969 C 36.632812 36.972656 37.113281 36.648438 37.683594 36.441406 C 38.25 36.246094 38.828125 36.144531 39.417969 36.144531 C 40.25 36.144531 40.910156 36.335938 41.390625 36.710938 C 41.878906 37.09375 42.226562 37.582031 42.4375 38.175781 C 42.652344 38.777344 42.761719 39.394531 42.761719 40.039062 C 42.761719 40.605469 42.691406 41.152344 42.546875 41.695312 C 42.40625 42.234375 42.152344 42.71875 41.785156 43.140625 C 41.382812 43.601562 40.902344 43.925781 40.335938 44.117188 C 39.765625 44.308594 39.183594 44.402344 38.585938 44.402344 Z M 36.898438 38.710938 C 36.855469 38.929688 36.820312 39.152344 36.796875 39.367188 C 36.769531 39.585938 36.765625 39.808594 36.765625 40.039062 C 36.765625 40.394531 36.796875 40.789062 36.867188 41.210938 C 36.929688 41.636719 37.042969 42.039062 37.210938 42.410156 C 37.375 42.785156 37.601562 43.089844 37.902344 43.332031 C 38.199219 43.574219 38.578125 43.695312 39.042969 43.695312 C 39.507812 43.695312 39.878906 43.59375 40.167969 43.382812 C 40.453125 43.179688 40.679688 42.90625 40.832031 42.574219 C 40.992188 42.242188 41.105469 41.878906 41.164062 41.492188 C 41.226562 41.09375 41.257812 40.726562 41.257812 40.367188 C 41.257812 40.011719 41.230469 39.628906 41.175781 39.222656 C 41.117188 38.8125 41.011719 38.425781 40.859375 38.054688 C 40.707031 37.691406 40.484375 37.390625 40.183594 37.164062 C 39.886719 36.933594 39.5 36.820312 39.03125 36.820312 C 38.578125 36.820312 38.148438 36.972656 37.742188 37.285156 C 37.335938 37.589844 37.058594 38.066406 36.898438 38.710938 Z M 45.617188 34.128906 L 47.03125 33.625 L 47.152344 33.714844 C 47.109375 34.207031 47.070312 34.683594 47.03125 35.136719 C 47 35.589844 46.972656 36.066406 46.96875 36.578125 L 47.070312 36.660156 L 49.226562 36.660156 L 49.316406 36.730469 L 49.175781 37.175781 L 49.074219 37.265625 L 47.070312 37.265625 L 46.96875 37.367188 L 46.96875 40.625 C 46.96875 41.03125 46.992188 41.433594 47.042969 41.835938 C 47.09375 42.234375 47.203125 42.566406 47.378906 42.824219 C 47.550781 43.082031 47.820312 43.210938 48.167969 43.210938 C 48.375 43.210938 48.625 43.136719 48.910156 42.976562 C 49.1875 42.824219 49.457031 42.667969 49.703125 42.503906 L 49.90625 42.542969 L 50.027344 42.796875 C 49.640625 43.167969 49.207031 43.511719 48.726562 43.835938 C 48.238281 44.15625 47.75 44.3125 47.253906 44.3125 C 47.0625 44.3125 46.847656 44.28125 46.621094 44.207031 C 46.390625 44.128906 46.195312 43.988281 46.035156 43.777344 C 45.921875 43.621094 45.839844 43.445312 45.78125 43.261719 C 45.722656 43.078125 45.691406 42.789062 45.671875 42.402344 C 45.65625 42.011719 45.648438 41.433594 45.648438 40.660156 L 45.648438 37.386719 L 45.546875 37.265625 L 43.65625 37.265625 L 43.566406 37.175781 L 43.6875 36.769531 L 43.789062 36.660156 L 45.546875 36.660156 L 45.648438 36.558594 C 45.648438 36.125 45.648438 35.660156 45.648438 35.179688 C 45.648438 34.695312 45.636719 34.347656 45.617188 34.128906 Z M 60.027344 42.320312 L 60.25 42.492188 L 60.25 42.675781 C 59.875 43.078125 59.46875 43.453125 59.023438 43.804688 C 58.578125 44.15625 58.097656 44.332031 57.597656 44.332031 C 57.195312 44.332031 56.917969 44.15625 56.738281 43.796875 C 56.570312 43.441406 56.480469 43.050781 56.480469 42.625 C 56.480469 42.320312 56.484375 41.960938 56.492188 41.566406 C 56.503906 41.171875 56.519531 40.789062 56.53125 40.425781 C 56.542969 40.0625 56.542969 39.78125 56.542969 39.570312 C 56.542969 39.140625 56.511719 38.738281 56.441406 38.375 C 56.378906 38.015625 56.238281 37.722656 56.027344 37.511719 C 55.820312 37.304688 55.507812 37.195312 55.089844 37.195312 C 54.632812 37.195312 54.195312 37.308594 53.789062 37.53125 C 53.382812 37.753906 53.023438 37.992188 52.691406 38.226562 C 52.691406 39.171875 52.683594 40.121094 52.679688 41.070312 C 52.667969 42.011719 52.660156 42.957031 52.660156 43.886719 L 51.441406 44.261719 L 51.339844 44.089844 C 51.398438 42.957031 51.449219 41.816406 51.492188 40.679688 C 51.535156 39.539062 51.570312 38.40625 51.582031 37.265625 C 51.582031 36.390625 51.582031 35.628906 51.582031 34.976562 C 51.582031 34.332031 51.46875 33.847656 51.238281 33.542969 C 51.164062 33.433594 50.976562 33.34375 50.699219 33.273438 C 50.421875 33.199219 50.167969 33.140625 49.9375 33.089844 L 49.9375 32.785156 L 50.027344 32.714844 L 52.691406 32.421875 L 52.792969 32.542969 C 52.761719 33.273438 52.742188 34.054688 52.734375 34.875 C 52.730469 35.695312 52.730469 36.507812 52.730469 37.296875 L 52.863281 37.4375 C 53.359375 37.125 53.890625 36.832031 54.46875 36.542969 C 55.039062 36.265625 55.640625 36.125 56.257812 36.125 C 56.382812 36.125 56.554688 36.167969 56.785156 36.246094 C 57.007812 36.328125 57.195312 36.449219 57.355469 36.609375 C 57.617188 36.851562 57.75 37.253906 57.753906 37.808594 C 57.761719 38.367188 57.761719 38.984375 57.761719 39.679688 L 57.761719 40.957031 C 57.761719 41.128906 57.761719 41.332031 57.753906 41.574219 C 57.75 41.816406 57.761719 42.050781 57.800781 42.28125 C 57.832031 42.511719 57.902344 42.703125 58.007812 42.855469 C 58.117188 43.015625 58.28125 43.089844 58.503906 43.089844 C 58.832031 43.089844 59.132812 43 59.390625 42.816406 C 59.660156 42.632812 59.867188 42.464844 60.027344 42.320312 Z M 63.5625 33.382812 C 63.546875 33.671875 63.441406 33.90625 63.242188 34.085938 C 63.046875 34.261719 62.8125 34.351562 62.546875 34.351562 C 62.273438 34.351562 62.042969 34.257812 61.855469 34.058594 C 61.65625 33.863281 61.5625 33.625 61.5625 33.351562 C 61.5625 33.050781 61.683594 32.816406 61.917969 32.644531 C 62.160156 32.472656 62.398438 32.382812 62.648438 32.382812 C 62.9375 32.382812 63.160156 32.484375 63.320312 32.6875 C 63.480469 32.886719 63.5625 33.121094 63.5625 33.382812 Z M 63.320312 37.40625 L 63.1875 41.023438 C 63.1875 41.65625 63.238281 42.148438 63.339844 42.503906 C 63.441406 42.859375 63.636719 43.039062 63.929688 43.039062 C 64.257812 43.039062 64.539062 42.960938 64.78125 42.804688 C 65.027344 42.652344 65.261719 42.472656 65.484375 42.261719 L 65.707031 42.433594 L 65.707031 42.625 C 65.515625 42.878906 65.285156 43.136719 65.03125 43.390625 C 64.785156 43.652344 64.511719 43.867188 64.222656 44.039062 C 63.933594 44.210938 63.636719 44.300781 63.320312 44.300781 C 63.085938 44.300781 62.863281 44.257812 62.652344 44.171875 C 62.445312 44.085938 62.28125 43.898438 62.160156 43.625 C 62.03125 43.351562 61.96875 42.929688 61.96875 42.371094 L 62.070312 38.558594 C 62.070312 38.113281 62.027344 37.753906 61.941406 37.488281 C 61.859375 37.226562 61.707031 37.09375 61.480469 37.09375 C 61.300781 37.09375 61.078125 37.148438 60.820312 37.269531 C 60.558594 37.390625 60.332031 37.519531 60.128906 37.640625 L 59.90625 37.335938 C 60.292969 37.023438 60.699219 36.730469 61.128906 36.457031 C 61.570312 36.179688 61.949219 36.042969 62.273438 36.042969 C 62.660156 36.042969 62.925781 36.175781 63.085938 36.4375 C 63.242188 36.703125 63.320312 37.023438 63.320312 37.40625 Z M 65.585938 36.78125 L 65.707031 36.679688 L 67.476562 36.679688 L 67.578125 36.578125 C 67.578125 36.277344 67.597656 35.925781 67.628906 35.53125 C 67.667969 35.136719 67.75 34.78125 67.882812 34.472656 C 68.140625 33.863281 68.503906 33.402344 68.972656 33.089844 C 69.441406 32.785156 69.9375 32.625 70.472656 32.625 C 70.929688 32.625 71.285156 32.726562 71.519531 32.917969 C 71.753906 33.117188 71.929688 33.328125 72.039062 33.554688 L 71.0625 34.484375 L 70.859375 34.421875 C 70.832031 34.296875 70.800781 34.140625 70.742188 33.96875 C 70.699219 33.796875 70.605469 33.644531 70.476562 33.511719 C 70.351562 33.382812 70.148438 33.320312 69.882812 33.320312 C 69.640625 33.320312 69.449219 33.464844 69.289062 33.765625 C 69.144531 34.066406 69.03125 34.460938 68.96875 34.957031 C 68.898438 35.449219 68.867188 35.992188 68.867188 36.578125 L 68.929688 36.679688 L 71.03125 36.679688 L 71.113281 36.800781 L 70.992188 37.175781 L 70.878906 37.285156 L 68.929688 37.285156 L 68.828125 37.386719 L 68.828125 39.296875 C 68.828125 40.101562 68.847656 40.902344 68.871094 41.699219 C 68.898438 42.503906 68.941406 43.25 69 43.949219 L 67.667969 44.363281 L 67.375 44.179688 C 67.433594 43.324219 67.480469 42.492188 67.527344 41.675781 C 67.570312 40.859375 67.597656 40.0625 67.597656 39.277344 L 67.597656 37.417969 L 67.496094 37.285156 L 65.605469 37.285156 L 65.515625 37.164062 Z M 72.851562 47.296875 L 72.8125 47.105469 L 73.554688 46.144531 L 73.777344 46.144531 C 73.960938 46.46875 74.203125 46.769531 74.507812 47.046875 C 74.8125 47.328125 75.152344 47.46875 75.535156 47.46875 C 75.984375 47.46875 76.359375 47.378906 76.652344 47.1875 C 76.941406 46.996094 77.171875 46.753906 77.34375 46.46875 C 77.515625 46.179688 77.640625 45.882812 77.722656 45.574219 C 77.804688 45.261719 77.871094 44.988281 77.921875 44.746094 C 77.972656 44.460938 78.007812 44.171875 78.023438 43.894531 C 78.027344 43.613281 78.039062 43.332031 78.054688 43.058594 L 77.953125 42.96875 C 77.476562 43.269531 76.96875 43.566406 76.417969 43.855469 C 75.863281 44.15625 75.3125 44.300781 74.773438 44.300781 C 74.367188 44.300781 74.050781 44.207031 73.808594 44.019531 C 73.574219 43.835938 73.402344 43.601562 73.289062 43.308594 C 73.175781 43.015625 73.105469 42.703125 73.066406 42.375 C 73.035156 42.050781 73.015625 41.738281 73.015625 41.453125 C 73.015625 41.0625 73.027344 40.679688 73.054688 40.296875 C 73.074219 39.921875 73.085938 39.515625 73.085938 39.09375 C 73.085938 38.46875 73.039062 37.984375 72.957031 37.628906 C 72.875 37.269531 72.652344 37.09375 72.304688 37.09375 C 72.160156 37.09375 71.976562 37.144531 71.738281 37.253906 C 71.511719 37.367188 71.300781 37.46875 71.105469 37.578125 L 70.921875 37.246094 C 70.980469 37.203125 71.097656 37.117188 71.277344 36.996094 C 71.453125 36.875 71.664062 36.75 71.890625 36.609375 C 72.128906 36.476562 72.363281 36.355469 72.609375 36.246094 C 72.855469 36.144531 73.078125 36.09375 73.269531 36.09375 C 73.632812 36.09375 73.898438 36.214844 74.074219 36.457031 C 74.246094 36.699219 74.335938 36.976562 74.335938 37.296875 C 74.335938 37.78125 74.324219 38.273438 74.304688 38.761719 C 74.277344 39.261719 74.265625 39.757812 74.265625 40.265625 C 74.289062 40.796875 74.324219 41.214844 74.359375 41.542969 C 74.398438 41.859375 74.449219 42.109375 74.511719 42.289062 C 74.578125 42.464844 74.652344 42.617188 74.742188 42.746094 C 74.863281 42.90625 75.019531 43.019531 75.210938 43.089844 C 75.40625 43.160156 75.605469 43.191406 75.808594 43.191406 C 76.214844 43.191406 76.613281 43.089844 77.007812 42.886719 C 77.398438 42.675781 77.753906 42.484375 78.066406 42.300781 C 78.078125 42 78.089844 41.695312 78.097656 41.382812 C 78.097656 41.078125 78.105469 40.765625 78.105469 40.453125 C 78.105469 39.832031 78.089844 39.214844 78.066406 38.597656 C 78.046875 37.984375 78.015625 37.378906 77.972656 36.78125 L 79.304688 36.125 L 79.507812 36.195312 C 79.449219 37.066406 79.417969 37.941406 79.40625 38.8125 C 79.390625 39.6875 79.386719 40.523438 79.378906 41.304688 C 79.375 42.097656 79.355469 42.804688 79.328125 43.433594 C 79.304688 44.070312 79.238281 44.59375 79.152344 45.003906 C 78.949219 45.753906 78.636719 46.359375 78.210938 46.824219 C 77.792969 47.289062 77.296875 47.632812 76.746094 47.851562 C 76.1875 48.066406 75.605469 48.175781 74.996094 48.175781 C 74.601562 48.175781 74.203125 48.09375 73.796875 47.921875 C 73.390625 47.75 73.074219 47.539062 72.851562 47.296875 Z M 72.851562 47.296875 " />
    </g>
    <g clip-path="url(#clip2)" clip-rule="nonzero">
      <path style=" stroke:none;fill-rule:nonzero;fill:rgb(1.176471%,27.45098%,12.54902%);fill-opacity:1;"
        d="M 21.695312 28.316406 C 26.371094 16.902344 37.3125 9.464844 49.441406 9.464844 C 61.570312 9.464844 72.507812 16.902344 77.183594 28.316406 L 75.761719 28.316406 C 71.246094 17.578125 60.894531 10.617188 49.441406 10.617188 C 37.988281 10.617188 27.632812 17.578125 23.117188 28.316406 L 21.695312 28.316406 M 21.695312 51.96875 C 26.371094 63.390625 37.3125 70.820312 49.441406 70.820312 C 61.570312 70.820312 72.507812 63.390625 77.183594 51.96875 L 75.761719 51.96875 C 71.246094 62.707031 60.894531 69.667969 49.441406 69.667969 C 37.988281 69.667969 27.632812 62.707031 23.117188 51.96875 L 21.695312 51.96875 " />
    </g>
    <g clip-path="url(#clip3)" clip-rule="nonzero">
      <path
        style="fill:none;stroke-width:1;stroke-linecap:butt;stroke-linejoin:miter;stroke:rgb(100%,100%,100%);stroke-opacity:1;stroke-miterlimit:4;"
        d="M 84.984555 76.481051 C 103.989944 31.008853 148.462874 1.378783 197.762569 1.378783 C 247.062264 1.378783 291.519316 31.008853 310.524705 76.481051 L 304.745289 76.481051 C 286.390877 33.701081 244.315453 5.969577 197.762569 5.969577 C 151.209684 5.969577 109.118383 33.701081 90.763971 76.481051 L 84.984555 76.481051 M 84.984555 170.709031 C 103.989944 216.212352 148.462874 245.811298 197.762569 245.811298 C 247.062264 245.811298 291.519316 216.212352 310.524705 170.709031 L 304.745289 170.709031 C 286.390877 213.489 244.315453 241.220505 197.762569 241.220505 C 151.209684 241.220505 109.118383 213.489 90.763971 170.709031 L 84.984555 170.709031 "
        transform="matrix(0.246024,0,0,0.251012,0.787076,9.118753)" />
    </g>
  </g>
</svg>